<svg width="611" height="513" viewBox="0 0 611 513" fill="none" xmlns="http://www.w3.org/2000/svg">
<path d="M186.688 277.419L0.754944 340.384L43.5269 474.811L152.11 435.449C160.731 432.324 170.301 433.237 178.176 437.936L296.103 508.301C301.257 511.376 307.146 513 313.148 513C316.686 513 320.202 512.435 323.563 511.328L586.672 424.588C593.079 422.476 598.696 418.474 602.784 413.108C606.665 408.015 609 401.912 609.51 395.529L610.193 386.997C610.235 386.474 610.236 385.949 610.195 385.426L609.755 379.708C609.094 371.106 605.292 363.049 599.073 357.07L598.443 356.464C592.301 350.558 584.11 347.259 575.588 347.259C572.241 347.259 568.914 347.768 565.721 348.77L453.22 384.051C446.222 386.246 441.459 392.731 441.459 400.065C441.459 405.071 440.899 410.061 439.79 414.943L438.592 420.215C437.961 422.99 436.922 425.657 435.51 428.128L432.445 433.493C427.869 441.5 420.974 447.933 412.668 451.943L411.661 452.429C406.138 455.095 400.085 456.48 393.952 456.48C390.503 456.48 387.068 456.042 383.73 455.176L378.518 453.825C371.625 452.038 364.991 449.371 358.78 445.89L303.171 414.724C300.367 413.153 298.631 410.19 298.631 406.977V406.006C298.631 403.237 300.196 400.705 302.673 399.467C304.912 398.347 307.569 398.451 309.714 399.743L367.737 434.681C373.995 438.449 381.161 440.44 388.466 440.44H389.45C395.997 440.44 402.424 438.683 408.061 435.353C413.434 432.178 417.905 427.681 421.05 422.291L421.184 422.06C424.941 415.619 426.699 408.207 426.234 400.765L425.983 396.75C425.617 390.902 423.357 385.333 419.544 380.885C417.37 378.348 414.743 376.237 411.797 374.66L286.411 307.542L237.599 279.65C231.012 275.886 223.682 273.609 216.121 272.979C211.572 272.6 206.994 272.821 202.503 273.638L198.466 274.372C194.471 275.098 190.534 276.117 186.688 277.419Z" fill="#9C78D2"/>
<path fill-rule="evenodd" clip-rule="evenodd" d="M436.113 270.88C505.714 270.88 562.137 214.457 562.137 144.855C562.137 75.254 505.714 18.8308 436.113 18.8308C366.511 18.8308 310.088 75.254 310.088 144.855C310.088 214.457 366.511 270.88 436.113 270.88ZM436.113 289.211C515.838 289.211 580.468 224.581 580.468 144.855C580.468 65.1301 515.838 0.5 436.113 0.5C356.387 0.5 291.757 65.1301 291.757 144.855C291.757 224.581 356.387 289.211 436.113 289.211Z" fill="#9C78D2"/>
<path d="M362.852 67.1872L361.946 66.5076C357.056 62.8407 353.578 57.6026 352.096 51.6736L336.821 60.8391L313.143 102.083L305.505 151.73L313.907 193.738L332.238 218.943L371.781 182.641C376.272 178.518 378.829 172.7 378.829 166.603C378.829 160.088 375.911 153.916 370.877 149.78L359.82 140.698C358.576 139.676 358.549 137.782 359.762 136.725L374.141 124.201C378.68 120.248 381.87 114.975 383.264 109.12C384.364 104.5 384.307 99.6808 383.098 95.0883L382.794 93.9319C381.688 89.7314 379.78 85.7848 377.174 82.31L374.772 79.1073C371.383 74.5893 367.37 70.5758 362.852 67.1872Z" fill="#9C78D2"/>
<path d="M446.537 39.3423L458.262 19.5946L483.467 18.0671L548.389 67.7131L574.358 150.966L556.791 188.391L539.32 183.334C532.007 181.217 526.028 175.932 523.029 168.934L522.595 167.922C521.473 165.304 519.811 162.951 517.717 161.019C513.426 157.057 507.632 155.142 501.825 155.764L489.578 157.076L476.904 158.711C469.596 159.654 462.2 159.696 454.882 158.835L446.138 157.806C442.029 157.323 438.029 156.16 434.301 154.365L428.285 151.468C422.572 148.718 418.295 143.671 416.52 137.584C414.881 131.964 415.511 125.925 418.276 120.765L420.15 117.266C423.563 110.896 429.027 105.865 435.656 102.988L464.07 90.6572C464.729 90.3712 464.7 89.4266 464.025 89.181L463.226 88.8904C459.436 87.5124 455.915 85.4878 452.817 82.9064L451.427 81.7481C446.448 77.5989 442.972 71.9269 441.536 65.6068C440.482 60.9694 440.564 56.146 441.774 51.5469L442.361 49.3145C443.283 45.8125 444.688 42.4561 446.537 39.3423Z" fill="#9C78D2"/>
<path d="M384.306 233.388L371.955 254.84V262.478L433.821 281.573L493.397 267.825L508.672 249.494L502.701 239.541C500.691 236.192 497.217 233.989 493.33 233.601C487.923 233.06 483.503 229.052 482.438 223.724L481.832 220.693C480.927 216.169 478.174 212.228 474.237 209.822L473.548 209.401C469.16 206.72 463.851 205.998 458.908 207.411L456.55 208.084C456.166 208.194 455.796 208.351 455.451 208.553L455.237 208.678C449.729 211.891 445.24 216.596 442.29 222.25L441.12 224.494C439.164 228.243 434.63 229.825 430.766 228.108L420.429 223.613C415.684 221.551 410.5 220.705 405.345 221.153L403.205 221.339C398.275 221.768 393.594 223.696 389.793 226.864C387.593 228.697 385.735 230.906 384.306 233.388Z" fill="#9C78D2"/>
</svg>
