<svg width="610" height="513" viewBox="0 0 610 513" fill="none" xmlns="http://www.w3.org/2000/svg">
<path d="M185.933 276.919L0 339.884L42.772 474.311L151.355 434.949C159.976 431.824 169.546 432.737 177.421 437.436L295.348 507.801C300.502 510.876 306.391 512.5 312.393 512.5C315.931 512.5 319.447 511.935 322.808 510.828L585.917 424.088C592.324 421.976 597.941 417.974 602.029 412.608C605.91 407.515 608.245 401.412 608.755 395.029L609.438 386.497C609.48 385.974 609.481 385.449 609.44 384.926L609 379.208C608.339 370.606 604.537 362.549 598.318 356.57L597.688 355.964C591.546 350.058 583.355 346.759 574.833 346.759C571.487 346.759 568.159 347.268 564.966 348.27L452.465 383.551C445.467 385.746 440.704 392.231 440.704 399.565C440.704 404.571 440.144 409.561 439.035 414.443L437.837 419.715C437.206 422.49 436.167 425.157 434.755 427.628L431.69 432.993C427.114 441 420.219 447.433 411.913 451.443L410.906 451.929C405.383 454.595 399.33 455.98 393.197 455.98C389.748 455.98 386.313 455.542 382.975 454.676L377.763 453.325C370.87 451.538 364.236 448.871 358.025 445.39L302.416 414.224C299.612 412.653 297.876 409.69 297.876 406.477V405.506C297.876 402.737 299.441 400.205 301.918 398.967C304.157 397.847 306.814 397.951 308.959 399.243L366.982 434.181C373.24 437.949 380.406 439.94 387.711 439.94H388.695C395.242 439.94 401.669 438.183 407.306 434.853C412.679 431.678 417.15 427.181 420.295 421.791L420.429 421.56C424.186 415.119 425.944 407.707 425.479 400.265L425.228 396.25C424.862 390.402 422.602 384.833 418.789 380.385C416.615 377.848 413.988 375.737 411.042 374.16L285.656 307.042L236.844 279.15C230.258 275.386 222.927 273.109 215.366 272.479C210.818 272.1 206.239 272.321 201.748 273.138L197.711 273.872C193.716 274.598 189.779 275.617 185.933 276.919Z" fill="white"/>
<path fill-rule="evenodd" clip-rule="evenodd" d="M435.358 270.38C504.959 270.38 561.382 213.957 561.382 144.355C561.382 74.754 504.959 18.3308 435.358 18.3308C365.756 18.3308 309.333 74.754 309.333 144.355C309.333 213.957 365.756 270.38 435.358 270.38ZM435.358 288.711C515.083 288.711 579.713 224.081 579.713 144.355C579.713 64.6301 515.083 0 435.358 0C355.632 0 291.002 64.6301 291.002 144.355C291.002 224.081 355.632 288.711 435.358 288.711Z" fill="white"/>
<path d="M362.097 66.6872L361.191 66.0075C356.301 62.3406 352.824 57.1026 351.341 51.1736L336.066 60.339L312.388 101.583L304.75 151.229L313.152 193.238L331.483 218.443L371.026 182.141C375.517 178.018 378.074 172.2 378.074 166.103C378.074 159.588 375.156 153.415 370.122 149.28L359.065 140.198C357.821 139.176 357.794 137.282 359.007 136.225L373.386 123.701C377.925 119.748 381.115 114.475 382.509 108.62C383.609 104 383.552 99.1807 382.343 94.5882L382.039 93.4318C380.934 89.2314 379.025 85.2848 376.419 81.81L374.017 78.6073C370.628 74.0892 366.615 70.0757 362.097 66.6872Z" fill="white"/>
<path d="M445.782 38.8423L457.507 19.0947L482.712 17.5671L547.634 67.2132L573.603 150.466L556.036 187.891L538.565 182.834C531.252 180.717 525.273 175.432 522.274 168.434L521.84 167.422C520.718 164.804 519.056 162.451 516.962 160.519C512.671 156.557 506.877 154.642 501.07 155.264L488.823 156.576L476.149 158.211C468.841 159.154 461.445 159.196 454.127 158.335L445.383 157.306C441.274 156.823 437.274 155.66 433.546 153.865L427.53 150.968C421.817 148.218 417.54 143.171 415.765 137.084C414.126 131.464 414.756 125.426 417.521 120.265L419.395 116.766C422.808 110.396 428.272 105.365 434.901 102.488L463.315 90.1573C463.974 89.8712 463.945 88.9267 463.27 88.6811L462.471 88.3904C458.681 87.0125 455.16 84.9878 452.062 82.4065L450.672 81.2482C445.693 77.099 442.217 71.427 440.781 65.1069C439.727 60.4695 439.809 55.6461 441.019 51.047L441.606 48.8146C442.528 45.3125 443.933 41.9561 445.782 38.8423Z" fill="white"/>
<path d="M383.551 232.888L371.2 254.341V261.978L433.066 281.073L492.642 267.325L507.917 248.994L501.946 239.041C499.936 235.692 496.462 233.489 492.575 233.101C487.168 232.56 482.748 228.552 481.683 223.224L481.077 220.193C480.172 215.669 477.419 211.728 473.482 209.322L472.793 208.901C468.405 206.22 463.096 205.498 458.153 206.911L455.795 207.584C455.411 207.694 455.041 207.852 454.696 208.053L454.482 208.178C448.974 211.391 444.485 216.096 441.535 221.751L440.365 223.994C438.409 227.743 433.875 229.325 430.011 227.608L419.674 223.114C414.929 221.051 409.745 220.205 404.59 220.653L402.45 220.839C397.52 221.268 392.839 223.196 389.038 226.364C386.838 228.197 384.98 230.406 383.551 232.888Z" fill="white"/>
</svg>
